<svg width="170" height="170" viewBox="0 0 170 170" fill="none" xmlns="http://www.w3.org/2000/svg">
<circle cx="85" cy="85" r="85" fill="white"/>
<circle cx="85" cy="85" r="78.5" fill="white" stroke="#FF8080" stroke-width="3"/>
<g clip-path="url(#clip0_736_42)">
<path d="M106.693 62.2158L98.7703 65.8701L106.903 77.6504C107.343 78.2879 107.646 78.8635 107.829 79.41C108.226 80.5964 107.98 81.4722 107.704 81.998C107.202 82.9563 106.207 83.5284 105.045 83.5284C104.298 83.5284 103.458 83.2992 102.477 82.8278L84.3855 74.1336L67.5685 82.7105C66.5736 83.2179 65.7126 83.4646 64.9364 83.4646C63.7961 83.4646 62.8044 82.9084 62.2837 81.977C62.0012 81.4716 61.7309 80.6226 62.0477 79.4484C62.1999 78.8844 62.4711 78.2893 62.8768 77.6295L70.1584 65.7872L63.9862 62.4351C54.3266 68.3577 48 78.1481 48 89.2369C48 107.323 64.7918 121.993 85.4994 121.993C106.208 121.993 123 107.323 123 89.2369C122.999 78.018 116.539 68.1175 106.693 62.2158Z" fill="#FF8080"/>
<path d="M93.0154 55.6029L88.0278 48.5031C87.3278 47.5067 86.3971 47.0071 85.4626 47.0071C84.551 47.0071 83.6358 47.4825 82.9278 48.4361L77.6376 55.5609L64.6361 57.2015C62.2497 57.5026 62.0286 58.6773 64.1424 59.8253L66.4204 61.0625L73.4845 64.8989L64.8941 78.8699C64.0218 80.2887 64.0966 81.0967 64.9365 81.0967C65.3096 81.0967 65.8337 80.9373 66.4927 80.6012L84.3544 71.4914L103.503 80.6935C104.162 81.0103 104.681 81.1605 105.045 81.1605C105.879 81.1605 105.905 80.3733 104.954 78.9958L95.2225 64.8989L104.11 60.7994L106.773 59.5709C108.958 58.5634 108.792 57.5123 106.405 57.2233L93.0154 55.6029Z" fill="#FF8080"/>
</g>
<defs>
<clipPath id="clip0_736_42">
<rect width="75" height="75" fill="white" transform="translate(48 47)"/>
</clipPath>
</defs>
</svg>
